<svg width="14" height="19" viewBox="0 0 14 19" fill="none" xmlns="http://www.w3.org/2000/svg">
<path d="M6.95073 17.7198C6.04928 16.3722 5.28633 15.2514 4.64012 14.3022C3.49362 12.618 2.71457 11.4736 2.18132 10.5592C1.77363 9.86011 1.53647 9.33832 1.39648 8.85084C1.25802 8.36867 1.20456 7.88504 1.20456 7.25C1.20456 3.91436 3.82085 1.25 7.00001 1.25C10.1792 1.25 12.7955 3.91436 12.7955 7.25C12.7955 7.88504 12.742 8.36867 12.6035 8.85084C12.4636 9.33832 12.2264 9.86011 11.8187 10.5592C11.2855 11.4736 10.5064 12.618 9.35991 14.3022C8.71378 15.2513 7.95096 16.3719 7.04966 17.7193C7.03871 17.7355 7.02943 17.7415 7.02404 17.7443C7.01732 17.7478 7.00912 17.75 7.00001 17.75C6.9909 17.75 6.98271 17.7478 6.97598 17.7443C6.97054 17.7415 6.96113 17.7353 6.95005 17.7188L6.32733 18.1368L6.95073 17.7198ZM7.00001 10.8125C8.94205 10.8125 10.4773 9.1956 10.4773 7.25C10.4773 5.3044 8.94205 3.6875 7.00001 3.6875C5.05798 3.6875 3.52274 5.3044 3.52274 7.25C3.52274 9.1956 5.05798 10.8125 7.00001 10.8125Z" stroke="#8D8D8D" stroke-width="1.5"/>
</svg>
